<?xml version="1.0" encoding="utf-8"?>
<!-- Generator: Adobe Illustrator 23.0.3, SVG Export Plug-In . SVG Version: 6.00 Build 0)  -->
<svg version="1.1" id="Layer_1" xmlns="http://www.w3.org/2000/svg" xmlns:xlink="http://www.w3.org/1999/xlink" x="0px" y="0px"
	 viewBox="0 0 483.8 358.4" style="enable-background:new 0 0 483.8 358.4;" xml:space="preserve">
<style type="text/css">
	.st0{fill:none;}
</style>
<title>noun-helmet-1738818</title>
<path d="M483-9.4L465.7-7c0.6,4.3,13.2,103.8-73.5,133.9c-67.8-83-190-95.2-273-27.4c-11.8,9.6-22.3,20.6-31.5,32.6
	C2.3,101.7,18.1,4.2,18.8,0L1.6-3C1.4-1.8-17,109.8,77.3,147c-17.8,28.3-27.9,60.8-29.4,94.2h-0.2v59h388.5v-59H436
	c-1.6-35.6-12.9-70.1-32.9-99.7C497.7,104.5,483.1-8.3,483-9.4L483-9.4z M418.7,282.6H65.2v-24h353.5V282.6z M418.5,241.1h-353
	c4.6-93.4,82-168,176.5-168S413.9,147.7,418.5,241.1L418.5,241.1z"/>
<rect x="-1972.5" class="st0" width="1866.9" height="300.2"/>
</svg>
